<?xml version="1.0" encoding="utf-8"?>
<!-- Generator: Adobe Illustrator 16.0.0, SVG Export Plug-In . SVG Version: 6.00 Build 0)  -->
<!DOCTYPE svg PUBLIC "-//W3C//DTD SVG 1.1//EN" "http://www.w3.org/Graphics/SVG/1.1/DTD/svg11.dtd">
<svg version="1.1" id="Layer_1_copy_5" xmlns="http://www.w3.org/2000/svg" xmlns:xlink="http://www.w3.org/1999/xlink" x="0px"
	 y="0px" width="288px" height="107px" viewBox="0 0 639 247" enable-background="new 0 0 639 247" xml:space="preserve">
<rect x="-266" y="-116" display="none" width="1190.55" height="841.89"/>
<path fill="#F1F2F2" d="M149.824,58.315h29v10.968h0.372c2.602-5.021,7.993-14.501,25.84-14.501v31.043
	c-14.316,0.373-24.354,3.345-24.354,18.96v56.699h-30.858V58.315z"/>
<path fill="#F1F2F2" d="M316.707,161.485h-29.184v-10.969h-0.373c-6.32,13.197-18.959,14.314-26.768,14.314
	c-6.319,0-21.191-1.486-30.297-13.013c-8.181-10.224-9.295-17.66-9.295-31.787V58.315h30.854v57.069c0,7.062,0,20.631,16.546,20.631
	c8.923,0,17.66-4.646,17.66-21.005V58.315h30.856V161.485z"/>
<path fill="#F1F2F2" d="M576.938,161.485h-30.857v-11.155h-0.373c-5.203,10.035-18.03,14.687-30.111,14.687
	c-32.716,0-51.864-25.655-51.864-55.208c0-33.834,24.351-55.026,51.864-55.026c16.914,0,26.396,8.178,30.111,14.501h0.373V58.315
	h30.857V161.485z M520.242,136.204c19.332,0,25.839-16.36,25.839-26.395c0-12.457-8.552-26.211-26.023-26.211
	c-17.659,0-25.468,14.872-25.468,26.58C494.59,119.843,501.654,136.204,520.242,136.204z"/>
<path fill="#F1F2F2" d="M599.425,23.925h30.857v137.56h-30.857V23.925z"/>
<g>
	<path fill="#F1F2F2" d="M39.541,198.252h3.435v31.192h14.203v3.11H39.541V198.252z"/>
	<path fill="#F1F2F2" d="M64.465,198.252h18.752v3.11H67.899v12.347h14.807v3.109H67.899v12.625h15.317v3.11H64.465V198.252z"/>
	<path fill="#F1F2F2" d="M89.757,198.252h3.761l12.023,30.031l12.113-30.031h3.759l-14.25,34.302h-3.249L89.757,198.252z"/>
	<path fill="#F1F2F2" d="M128.885,198.252h18.752v3.11h-15.316v12.347h14.805v3.109h-14.805v12.625h15.316v3.11h-18.752V198.252z"/>
	<path fill="#F1F2F2" d="M157.243,198.252h8.169c3.249,0,6.87,0.046,9.748,1.671c3.48,1.996,5.337,5.524,5.337,9.516
		c0,5.617-4.548,10.165-10.118,10.305l9.654,12.811h-4.271l-11.651-15.551h1.022c2.412,0,5.198,0.095,7.472-0.927
		c2.832-1.3,4.456-3.898,4.456-6.962c0-2.368-1.253-4.782-3.203-6.127c-2.273-1.625-5.059-1.625-7.75-1.625h-5.431v31.192h-3.436
		V198.252z"/>
	<path fill="#F1F2F2" d="M200.684,198.252h3.807l14.713,34.302h-3.713l-4.965-11.511h-15.968l-4.967,11.511h-3.713L200.684,198.252z
		 M209.178,217.932l-6.59-15.735l-6.685,15.735H209.178z"/>
	<path fill="#F1F2F2" d="M226.72,198.252h4.642l19.218,28.453v-28.453h3.434v34.302h-3.434l-20.423-30.171v30.171h-3.436V198.252z"
		/>
	<path fill="#F1F2F2" d="M264.547,198.252h9.237c4.92,0.046,9.515,0.836,13.459,3.992c3.899,3.203,6.267,8.123,6.267,13.088
		c0,4.921-2.088,9.516-5.615,12.765c-4.084,3.713-8.587,4.456-13.878,4.456h-9.47V198.252z M272.391,229.444
		c4.549-0.046,8.586-0.139,12.393-3.157c3.437-2.691,5.246-6.59,5.293-10.955c-0.047-4.456-1.811-8.075-5.339-10.861
		c-3.761-2.924-7.798-3.156-12.347-3.11h-4.411v28.082H272.391z"/>
	<path fill="#F1F2F2" d="M335.281,196.442l-4.225,5.617c3.946,3.434,6.221,8.309,6.221,13.553c0,9.887-8.541,17.5-18.195,17.545
		c-3.296-0.046-6.544-0.975-9.375-2.691l-4.41,5.941l-2.553-1.903l4.41-5.895c-3.807-3.343-6.08-7.892-6.08-13.044
		c0-4.781,1.762-9.051,5.104-12.486c3.342-3.343,7.986-5.385,12.719-5.385c3.248,0,6.73,0.79,9.515,2.554l4.363-5.802
		L335.281,196.442z M326.416,202.893c-2.135-1.391-4.688-1.948-7.243-1.902c-8.26-0.046-14.619,6.684-14.666,14.854
		c0.047,3.945,1.857,7.381,4.64,10.072L326.416,202.893z M311.655,227.819c2.32,1.393,4.735,2.042,7.472,2.042
		c7.754,0,14.763-6.36,14.717-14.25c0.046-4.223-1.766-7.983-4.875-10.861L311.655,227.819z"/>
	<path fill="#F1F2F2" d="M346.324,198.252h8.17c3.248,0,6.868,0.046,9.747,1.671c3.48,1.996,5.337,5.524,5.337,9.516
		c0,5.617-4.548,10.165-10.118,10.305l9.655,12.811h-4.271l-11.651-15.551h1.022c2.412,0,5.197,0.095,7.472-0.927
		c2.832-1.3,4.457-3.898,4.457-6.962c0-2.368-1.253-4.782-3.204-6.127c-2.274-1.625-5.059-1.625-7.75-1.625h-5.432v31.192h-3.435
		V198.252z"/>
	<path fill="#F1F2F2" d="M377.976,198.252h17.406v3.11h-13.97v12.394h13.46v3.11h-13.46v15.688h-3.437V198.252z"/>
	<path fill="#F1F2F2" d="M438.733,215.287c0,9.979-8.218,17.87-18.15,17.87c-9.608,0-18.103-7.75-18.103-17.591
		c0-9.979,8.17-17.871,18.103-17.871C430.284,197.694,438.733,205.447,438.733,215.287z M420.631,200.944
		c-8.077,0.046-14.715,6.545-14.715,14.621c0,7.936,6.917,14.296,14.715,14.296c8.075,0,14.666-6.451,14.666-14.574
		c0-7.938-6.823-14.297-14.666-14.297V200.944z"/>
	<path fill="#F1F2F2" d="M447.78,198.252h8.169c3.248,0,6.87,0.046,9.75,1.671c3.478,1.996,5.336,5.524,5.336,9.516
		c0,5.617-4.548,10.165-10.119,10.305l9.655,12.811h-4.27l-11.652-15.551h1.022c2.412,0,5.199,0.095,7.474-0.927
		c2.83-1.3,4.454-3.898,4.454-6.962c0-2.368-1.252-4.782-3.204-6.127c-2.272-1.625-5.059-1.625-7.749-1.625h-5.431v31.192h-3.436
		V198.252z"/>
	<path fill="#F1F2F2" d="M479.434,198.252h18.752v3.11h-15.317v12.347h14.806v3.109h-14.806v12.625h15.317v3.11h-18.752V198.252z"/>
	<path fill="#F1F2F2" d="M507.79,198.252h4.641l19.218,28.453v-28.453h3.437v34.302h-3.437l-20.423-30.171v30.171h-3.436V198.252z"
		/>
	<path fill="#F1F2F2" d="M545.615,198.252h3.435v34.302h-3.435V198.252z"/>
	<path fill="#F1F2F2" d="M559.586,198.252h4.643l19.217,28.453v-28.453h3.434v34.302h-3.434l-20.424-30.171v30.171h-3.436V198.252z"
		/>
	<path fill="#F1F2F2" d="M632.456,216.726c-0.649,9.422-8.91,16.431-18.147,16.431c-9.887,0-18.383-7.89-18.383-17.916
		c0-4.55,2.089-9.145,5.293-12.3c3.572-3.528,8.169-5.246,13.09-5.246c3.572,0,7.1,0.975,10.071,2.924
		c2.229,1.486,5.105,4.131,5.987,6.778h-3.898c-2.416-4.038-7.38-6.406-12.16-6.406c-3.668,0-7.383,1.254-10.214,3.854
		c-2.831,2.599-4.733,6.544-4.733,10.443c0,8.354,6.916,14.574,15.085,14.574c6.128,0,12.162-4.038,13.88-10.025h-19.172v-3.11
		H632.456z"/>
</g>
<path fill="#F1F2F2" d="M400.723,54.783c-15.801,0-26.023,7.065-32.158,14.87h-0.371h-0.188V58.315h-28.997v125.999
	c4.417-2.182,9.368-3.439,14.628-3.439c5.902,0,11.43,1.561,16.227,4.263v-32.951c3.717,3.908,12.457,12.83,31.047,12.83
	c29.369,0,50.188-24.354,50.188-54.095C451.098,86.942,437.344,54.783,400.723,54.783z M394.404,136.204
	c-16.175,0-25.84-13.2-25.84-26.214c0-12.266,8.924-26.393,25.84-26.393c16.915,0,25.838,14.126,25.838,26.393
	C420.242,123.003,410.575,136.204,394.404,136.204z"/>
<path fill="#FFFFFF" d="M46.527,63.442c-16.979-3.878-33.89,6.744-37.768,23.728c-3.875,16.983,6.748,33.895,23.731,37.771
	c16.977,3.876,33.892-6.75,37.768-23.731C74.137,84.224,63.508,67.317,46.527,63.442z"/>
<path fill="#F1F2F2" d="M42.385,6.419L41.871,43.7c0.069,0.002,0.138-0.003,0.207,0c28.879,0.393,51.982,24.125,51.584,53.017
	C93.265,125.601,69.521,148.7,40.646,148.3c-0.073-0.001-0.149-0.006-0.221-0.008l-0.633,37.461c0.045,0,0.085,0.005,0.128,0.006
	c49.522,0.677,90.222-38.917,90.902-88.44C131.502,47.797,91.907,7.099,42.385,6.419z"/>
<path fill="#127CBC" d="M149.824,424.096h29v10.968h0.372c2.602-5.021,7.993-14.5,25.84-14.5v31.043
	c-14.316,0.373-24.354,3.345-24.354,18.961v56.698h-30.858V424.096z"/>
<path fill="#127CBC" d="M316.707,527.266h-29.184v-10.97h-0.373c-6.32,13.197-18.959,14.314-26.768,14.314
	c-6.319,0-21.191-1.486-30.297-13.013c-8.181-10.224-9.295-17.659-9.295-31.786v-61.716h30.854v57.069
	c0,7.062,0,20.631,16.546,20.631c8.923,0,17.66-4.646,17.66-21.005v-56.695h30.856V527.266z"/>
<path fill="#127CBC" d="M576.938,527.266h-30.857V516.11h-0.373c-5.203,10.035-18.03,14.688-30.111,14.688
	c-32.716,0-51.864-25.656-51.864-55.209c0-33.834,24.351-55.025,51.864-55.025c16.914,0,26.396,8.178,30.111,14.5h0.373v-10.968
	h30.857V527.266z M520.242,501.983c19.332,0,25.839-16.359,25.839-26.395c0-12.457-8.552-26.211-26.023-26.211
	c-17.659,0-25.468,14.871-25.468,26.579C494.59,485.624,501.654,501.983,520.242,501.983z"/>
<path fill="#FFFFFF" d="M599.425,389.706h30.857v137.56h-30.857V389.706z"/>
<g>
	<path fill="#FFFFFF" d="M39.541,564.032h3.435v31.191h14.203v3.11H39.541V564.032z"/>
	<path fill="#FFFFFF" d="M64.465,564.032h18.752v3.109H67.899v12.348h14.807v3.109H67.899v12.625h15.317v3.11H64.465V564.032z"/>
	<path fill="#FFFFFF" d="M89.757,564.032h3.761l12.023,30.031l12.113-30.031h3.759l-14.25,34.302h-3.249L89.757,564.032z"/>
	<path fill="#FFFFFF" d="M128.885,564.032h18.752v3.109h-15.316v12.348h14.805v3.109h-14.805v12.625h15.316v3.11h-18.752V564.032z"
		/>
	<path fill="#FFFFFF" d="M157.243,564.032h8.169c3.249,0,6.87,0.047,9.748,1.671c3.48,1.996,5.337,5.524,5.337,9.516
		c0,5.616-4.548,10.165-10.118,10.305l9.654,12.811h-4.271l-11.651-15.551h1.022c2.412,0,5.198,0.095,7.472-0.927
		c2.832-1.301,4.456-3.898,4.456-6.963c0-2.367-1.253-4.781-3.203-6.127c-2.273-1.625-5.059-1.625-7.75-1.625h-5.431v31.192h-3.436
		V564.032z"/>
	<path fill="#FFFFFF" d="M200.684,564.032h3.807l14.713,34.302h-3.713l-4.965-11.511h-15.968l-4.967,11.511h-3.713L200.684,564.032z
		 M209.178,583.712l-6.59-15.734l-6.685,15.734H209.178z"/>
	<path fill="#FFFFFF" d="M226.72,564.032h4.642l19.218,28.453v-28.453h3.434v34.302h-3.434l-20.423-30.171v30.171h-3.436V564.032z"
		/>
	<path fill="#FFFFFF" d="M264.547,564.032h9.237c4.92,0.047,9.515,0.836,13.459,3.992c3.899,3.203,6.267,8.123,6.267,13.088
		c0,4.922-2.088,9.517-5.615,12.766c-4.084,3.713-8.587,4.456-13.878,4.456h-9.47V564.032z M272.391,595.224
		c4.549-0.046,8.586-0.139,12.393-3.156c3.437-2.691,5.246-6.59,5.293-10.955c-0.047-4.455-1.811-8.074-5.339-10.86
		c-3.761-2.925-7.798-3.156-12.347-3.11h-4.411v28.082H272.391z"/>
	<path fill="#FFFFFF" d="M335.281,562.222l-4.225,5.617c3.946,3.434,6.221,8.309,6.221,13.553c0,9.887-8.541,17.5-18.195,17.545
		c-3.296-0.045-6.544-0.975-9.375-2.691l-4.41,5.941l-2.553-1.902l4.41-5.895c-3.807-3.343-6.08-7.893-6.08-13.044
		c0-4.78,1.762-9.052,5.104-12.486c3.342-3.343,7.986-5.385,12.719-5.385c3.248,0,6.73,0.79,9.515,2.554l4.363-5.802
		L335.281,562.222z M326.416,568.673c-2.135-1.391-4.688-1.948-7.243-1.902c-8.26-0.046-14.619,6.684-14.666,14.854
		c0.047,3.945,1.857,7.381,4.64,10.072L326.416,568.673z M311.655,593.6c2.32,1.393,4.735,2.042,7.472,2.042
		c7.754,0,14.763-6.359,14.717-14.25c0.046-4.223-1.766-7.982-4.875-10.861L311.655,593.6z"/>
	<path fill="#FFFFFF" d="M346.324,564.032h8.17c3.248,0,6.868,0.047,9.747,1.671c3.48,1.996,5.337,5.524,5.337,9.516
		c0,5.616-4.548,10.165-10.118,10.305l9.655,12.811h-4.271l-11.651-15.551h1.022c2.412,0,5.197,0.095,7.472-0.927
		c2.832-1.301,4.457-3.898,4.457-6.963c0-2.367-1.253-4.781-3.204-6.127c-2.274-1.625-5.059-1.625-7.75-1.625h-5.432v31.192h-3.435
		V564.032z"/>
	<path fill="#FFFFFF" d="M377.976,564.032h17.406v3.109h-13.97v12.395h13.46v3.109h-13.46v15.688h-3.437V564.032z"/>
	<path fill="#FFFFFF" d="M438.733,581.067c0,9.979-8.218,17.869-18.15,17.869c-9.608,0-18.103-7.75-18.103-17.591
		c0-9.979,8.17-17.871,18.103-17.871C430.284,563.475,438.733,571.228,438.733,581.067z M420.631,566.725
		c-8.077,0.046-14.715,6.545-14.715,14.621c0,7.937,6.917,14.296,14.715,14.296c8.075,0,14.666-6.451,14.666-14.574
		c0-7.938-6.823-14.297-14.666-14.297V566.725z"/>
	<path fill="#FFFFFF" d="M447.78,564.032h8.169c3.248,0,6.87,0.047,9.75,1.671c3.478,1.996,5.336,5.524,5.336,9.516
		c0,5.616-4.548,10.165-10.119,10.305l9.655,12.811h-4.27l-11.652-15.551h1.022c2.412,0,5.199,0.095,7.474-0.927
		c2.83-1.301,4.454-3.898,4.454-6.963c0-2.367-1.252-4.781-3.204-6.127c-2.272-1.625-5.059-1.625-7.749-1.625h-5.431v31.192h-3.436
		V564.032z"/>
	<path fill="#FFFFFF" d="M479.434,564.032h18.752v3.109h-15.317v12.348h14.806v3.109h-14.806v12.625h15.317v3.11h-18.752V564.032z"
		/>
	<path fill="#FFFFFF" d="M507.79,564.032h4.641l19.218,28.453v-28.453h3.437v34.302h-3.437l-20.423-30.171v30.171h-3.436V564.032z"
		/>
	<path fill="#FFFFFF" d="M545.615,564.032h3.435v34.302h-3.435V564.032z"/>
	<path fill="#FFFFFF" d="M559.586,564.032h4.643l19.217,28.453v-28.453h3.434v34.302h-3.434l-20.424-30.171v30.171h-3.436V564.032z"
		/>
	<path fill="#FFFFFF" d="M632.456,582.507c-0.649,9.422-8.91,16.43-18.147,16.43c-9.887,0-18.383-7.89-18.383-17.916
		c0-4.549,2.089-9.145,5.293-12.3c3.572-3.528,8.169-5.246,13.09-5.246c3.572,0,7.1,0.976,10.071,2.925
		c2.229,1.486,5.105,4.131,5.987,6.777h-3.898c-2.416-4.037-7.38-6.406-12.16-6.406c-3.668,0-7.383,1.254-10.214,3.854
		s-4.733,6.545-4.733,10.443c0,8.354,6.916,14.574,15.085,14.574c6.128,0,12.162-4.037,13.88-10.025h-19.172v-3.109H632.456z"/>
</g>
<path fill="#127CBC" d="M400.723,420.563c-15.801,0-26.023,7.064-32.158,14.869h-0.371h-0.188v-11.337h-28.997v125.999
	c4.417-2.182,9.368-3.439,14.628-3.439c5.902,0,11.43,1.562,16.227,4.264v-32.951c3.717,3.907,12.457,12.83,31.047,12.83
	c29.369,0,50.188-24.354,50.188-54.096C451.098,452.723,437.344,420.563,400.723,420.563z M394.404,501.983
	c-16.175,0-25.84-13.199-25.84-26.213c0-12.267,8.924-26.393,25.84-26.393c16.915,0,25.838,14.126,25.838,26.393
	C420.242,488.784,410.575,501.983,394.404,501.983z"/>
<path fill="#127CBC" d="M46.527,429.223c-16.979-3.878-33.89,6.743-37.768,23.728c-3.875,16.983,6.748,33.896,23.731,37.771
	c16.977,3.875,33.892-6.75,37.768-23.731C74.137,450.005,63.508,433.097,46.527,429.223z"/>
<path fill="#FFFFFF" d="M42.385,372.2l-0.515,37.28c0.069,0.002,0.138-0.003,0.207,0c28.879,0.394,51.982,24.126,51.584,53.017
	c-0.397,28.884-24.141,51.982-53.016,51.583c-0.073-0.001-0.149-0.007-0.221-0.008l-0.633,37.461c0.045,0,0.085,0.005,0.128,0.007
	c49.522,0.676,90.222-38.917,90.902-88.44C131.502,413.577,91.907,372.88,42.385,372.2z"/>
<g>
	<text transform="matrix(1 0 0 1 -212.3818 -56.2065)" fill="#FFFFFF" font-family="'AvantGarde-Book'" font-size="15.5393">Drupal logo Forslag 3</text>
</g>
</svg>
